<?xml version="1.0" encoding="utf-8"?>
<!-- Generator: Adobe Illustrator 16.0.0, SVG Export Plug-In . SVG Version: 6.00 Build 0)  -->
<!DOCTYPE svg PUBLIC "-//W3C//DTD SVG 1.1//EN" "http://www.w3.org/Graphics/SVG/1.1/DTD/svg11.dtd">
<svg version="1.1" id="Layer_1" xmlns="http://www.w3.org/2000/svg" xmlns:xlink="http://www.w3.org/1999/xlink" x="0px" y="0px"
	 width="345.6px" height="76.753px" viewBox="0 0 345.6 76.753" enable-background="new 0 0 345.6 76.753" xml:space="preserve">
<g id="surface1">
	<path fill="#F89921" d="M304.624,1.633c1.624-0.298,3.254-0.595,4.878-0.893c0,12.486,0,24.965,0,37.451
		c0.016,1.088-0.045,2.726,0.081,3.812c0.239,1.773,0.968,3.182,3.002,3.418c1.026,0.128,2.04-0.17,2.985-0.542
		c0.394,1.131,0.812,2.247,1.213,3.38c-1.652,0.773-3.469,1.169-5.294,1.281c-1.034,0.043-2.091-0.016-3.089-0.321
		c-2.458-0.797-3.686-3.008-3.776-5.503C304.624,29.689,304.624,15.661,304.624,1.633"/>
	<path fill="#F89921" d="M290.113,1.344c1.072-0.209,2.226,0.037,3.113,0.669c0.729,0.514,1.287,1.266,1.556,2.115
		c0.289,0.945,0.23,2.002-0.18,2.896c-0.453,1.005-1.332,1.816-2.375,2.174c-1.012,0.357-2.167,0.297-3.134-0.178
		c-0.805-0.387-1.482-1.05-1.877-1.854c-0.498-1.005-0.559-2.204-0.164-3.254C287.536,2.602,288.736,1.589,290.113,1.344"/>
	<path fill="#F89921" d="M249.653,16.45c1.214-0.372,2.486-0.618,3.767-0.565c1.177,0.045,2.361,0.388,3.329,1.08
		c0.983,0.7,1.706,1.72,2.19,2.822c1.637-1.265,3.655-2.301,5.866-3.075c1.267-0.447,3.03-0.744,4.386-0.692
		c1.132,0.044,2.264,0.402,3.193,1.057c0.761,0.521,1.385,1.221,1.907,1.973c0.416,0.588,0.789,1.221,1.019,1.899
		c0.173,0.483,0.217,0.998,0.247,1.503c0,8.489,0.029,16.977,0.037,25.465c0,0.306-0.18,0.699-0.529,0.699c-1.169,0-2.346,0-3.515,0
		c-0.207,0.008-0.432-0.028-0.58-0.171c-0.157-0.135-0.201-0.343-0.201-0.528c0.007-7.35,0-14.698,0-22.04
		c0-0.581,0.052-1.161-0.052-1.734c-0.097-0.559-0.335-1.072-0.597-1.563c-0.439-0.812-1.079-1.527-1.905-1.944
		c-1.021-0.528-1.906-0.565-3.009-0.334c-1.832,0.409-3.618,1.474-5.159,2.665c0.007,8.146,0,16.291,0,24.437
		c-0.008,0.254,0.037,0.522-0.052,0.767c-0.112,0.27-0.418,0.419-0.7,0.419c-1.132,0-2.271,0-3.402,0
		c-0.245-0.009-0.522-0.023-0.716-0.187c-0.179-0.142-0.23-0.381-0.23-0.597c0-7.812,0.008-15.613,0-23.424
		c-0.156-1.162-0.528-2.36-1.325-3.246c-0.633-0.7-1.578-1.065-2.509-1.095c-1.304-0.037-2.562,0.402-3.724,0.946
		c-1.108,0.536-2.15,1.206-3.119,1.98c-0.053,8.124-0.119,16.247-0.171,24.378c-0.008,0.342,0.015,0.685-0.097,1.012
		c-0.066,0.209-0.254,0.403-0.484,0.396c-1.206,0.008-2.413,0-3.619,0c-0.193,0.008-0.409-0.038-0.535-0.194
		c-0.144-0.179-0.144-0.423-0.149-0.64c0-6.329,0-12.658,0-18.987c-0.015-1.579,0.029-3.157-0.022-4.729
		c-0.067-1.31-0.171-2.635-0.515-3.909c-0.148-0.536-0.364-1.057-0.64-1.541c-0.111-0.201-0.135-0.462-0.015-0.671
		c0.134-0.238,0.381-0.372,0.617-0.491c0.85-0.432,1.69-0.863,2.54-1.296c0.237-0.141,0.543-0.26,0.805-0.111
		c0.237,0.164,0.274,0.469,0.364,0.722c0.335,0.96,0.662,1.921,0.998,2.881C245.276,18.379,247.376,17.181,249.653,16.45"/>
	<path fill="#F89921" d="M218.367,16.332c2.71-0.588,5.555-0.261,8.152,0.648c0.7,0.238,1.377,0.521,2.048,0.826
		c0.365,0.186,0.708,0.492,0.805,0.901c0.053,0.246,0.053,0.514-0.053,0.745c-0.32,0.693-0.663,1.37-0.982,2.055
		c-0.112,0.247-0.343,0.417-0.589,0.515c-0.282,0.104-0.596,0.021-0.856-0.112c-1.005-0.477-2.048-0.878-3.119-1.161
		c-1.349-0.357-2.77-0.514-4.139-0.246c-0.991,0.194-1.96,0.648-2.659,1.393c-0.818,0.841-1.213,2.07-1.064,3.239
		c0.143,1.303,0.901,2.486,1.921,3.291c0.402,0.321,0.849,0.582,1.317,0.813c2.249,1.161,4.497,2.323,6.753,3.484
		c1.803,1.139,3.344,2.762,4.17,4.751c0.544,1.295,0.753,2.732,0.589,4.126c-0.201,1.808-1.064,3.506-2.309,4.831
		c-0.208,0.178-0.402,0.379-0.604,0.573c-0.924,0.782-1.98,1.407-3.12,1.816c-1.221,0.484-2.538,0.708-3.849,0.774
		c-3.231,0.149-6.426-0.729-9.352-2.048c-0.343-0.163-0.716-0.29-0.998-0.55c-0.29-0.269-0.357-0.694-0.245-1.058
		c0.162-0.484,0.402-0.932,0.596-1.393c0.223-0.462,0.364-0.983,0.752-1.34c0.178-0.187,0.476-0.276,0.722-0.157
		c0.514,0.225,0.998,0.498,1.526,0.708c1.05,0.461,2.138,0.841,3.253,1.102c1.646,0.379,3.352,0.498,5.021,0.283
		c1.02-0.239,1.943-0.834,2.598-1.646c0.773-0.917,1.161-2.152,1.042-3.343c-0.112-1.08-0.64-2.108-1.422-2.852
		c-0.655-0.678-1.476-1.146-2.316-1.542c-1.115-0.551-2.24-1.102-3.357-1.653c-0.492-0.269-1.035-0.402-1.541-0.655
		c-2.137-0.953-4.028-2.554-5.131-4.646c-0.564-1.08-0.923-2.286-0.99-3.507c-0.074-1.355,0.194-2.725,0.799-3.946
		c0.974-2.033,2.799-3.559,4.837-4.46C217.139,16.614,217.757,16.48,218.367,16.332"/>
	<path fill="#F89921" d="M327.572,17.024c1.438-0.574,2.985-0.826,4.534-0.804c1.602,0.023,3.21,0.305,4.691,0.931
		c1.197,0.5,2.294,1.229,3.224,2.123c1.96,1.869,3.158,4.4,3.805,6.999c0.618,2.419,0.753,4.928,0.715,7.423
		c-6.752,0-13.506,0-20.259,0c0.008,2.599,0.653,5.25,2.158,7.401c0.551,0.812,1.252,1.511,2.019,2.121
		c1.214,0.924,2.658,1.52,4.162,1.766c1.541,0.261,3.135,0.202,4.661-0.157c1.765-0.395,3.461-1.079,4.989-2.048
		c0.319,0.745,0.654,1.49,0.975,2.234c0.178,0.425,0.402,0.842,0.544,1.272c-1.191,0.782-2.479,1.415-3.827,1.892
		c-1.297,0.485-2.637,0.819-4.008,1.021c-1.718,0.237-3.476,0.163-5.181-0.158c-2.628-0.483-5.114-1.771-6.991-3.678
		c-1.876-1.897-3.149-4.333-3.872-6.886c-0.587-2.033-0.842-4.155-0.85-6.27c0.008-3.261,0.671-6.574,2.249-9.448
		C322.688,20.233,324.87,18.088,327.572,17.024z M327.931,21.618c-1.214,0.841-2.115,2.078-2.703,3.425
		c-0.61,1.415-0.871,2.956-0.886,4.498c4.974-0.007,9.946,0,14.928,0c-0.015-1.341-0.23-2.681-0.678-3.946
		c-0.439-1.214-1.086-2.368-2.003-3.291c-0.968-0.983-2.248-1.676-3.618-1.862C331.222,20.181,329.375,20.59,327.931,21.618"/>
	<path fill="#F89921" d="M282.795,17.314c-0.016-0.231,0.215-0.387,0.432-0.365c3.401,0,6.805,0,10.207,0
		c0.225-0.022,0.439,0.172,0.41,0.402c0,10.208,0,20.416,0,30.624c0.022,0.247-0.171,0.499-0.432,0.492
		c-1.341,0.007-2.681,0-4.021,0.007c-0.164,0-0.357-0.007-0.471-0.141c-0.088-0.09-0.111-0.231-0.111-0.35
		c-0.007-9.002,0-17.997-0.007-26.991c-1.877-0.007-3.753,0-5.629-0.007c-0.201,0.015-0.387-0.157-0.379-0.358
		C282.795,19.526,282.795,18.424,282.795,17.314"/>
	<path fill="#F89921" d="M129.808,51.572c1.735-0.037,3.485,0.067,5.19,0.417c0.663,0.149,1.333,0.321,1.943,0.627
		c0.335,0.171,0.663,0.415,0.774,0.78c0.253,0.753,0.239,1.563,0.216,2.346c-0.067,1.229-0.268,2.442-0.543,3.633
		c-0.618,2.636-1.616,5.19-3.023,7.514c-0.894,1.451-1.966,2.814-3.253,3.938c-0.328,0.299-0.693,0.604-1.147,0.641
		c-0.246,0.037-0.514-0.074-0.618-0.305c-0.104-0.239-0.06-0.513,0.03-0.752c1.079-2.732,2.159-5.473,2.918-8.31
		c0.186-0.707,0.35-1.422,0.461-2.145c0.126-0.849,0.238-1.741-0.007-2.576c-0.12-0.416-0.439-0.744-0.819-0.938
		c-0.641-0.336-1.362-0.462-2.077-0.559c-1.765-0.209-3.537-0.142-5.309-0.038c-1.958,0.128-3.916,0.344-5.867,0.581
		c-0.283,0.03-0.61,0.008-0.819-0.208c-0.186-0.186-0.165-0.492-0.06-0.714c0.187-0.372,0.536-0.627,0.878-0.842
		c1.504-1.014,3.187-1.713,4.929-2.205C125.616,51.884,127.708,51.617,129.808,51.572"/>
	<path fill="#F89921" d="M30.699,53.716c0.328-0.082,0.678-0.007,0.975,0.156c1.117,0.61,2.22,1.252,3.344,1.854
		c8.585,4.565,17.833,7.863,27.326,9.911c5.532,1.183,11.154,1.95,16.797,2.264c11.31,0.671,22.709-0.642,33.625-3.626
		c4.244-1.169,8.42-2.584,12.479-4.274c0.432-0.164,0.849-0.387,1.311-0.432c0.663-0.075,1.378,0.217,1.705,0.812
		c0.261,0.438,0.224,1.013-0.044,1.444c-0.306,0.49-0.819,0.796-1.273,1.132c-4.757,3.402-10.066,6.001-15.554,7.99
		c-3.812,1.384-7.729,2.463-11.705,3.268c-5.681,1.139-11.474,1.72-17.267,1.607c-5.658-0.096-11.303-0.773-16.813-2.048
		c-9.366-2.15-18.331-6.037-26.298-11.413c-2.874-1.937-5.614-4.059-8.205-6.352c-0.305-0.305-0.692-0.543-0.908-0.923
		c-0.171-0.283-0.201-0.655-0.038-0.945C30.26,53.925,30.476,53.776,30.699,53.716"/>
	<path fill="#231E20" d="M10.216,15.557c1.861-0.633,3.819-0.923,5.777-0.968c1.601-0.059,3.202,0.112,4.758,0.477
		c1.229,0.298,2.435,0.729,3.537,1.363c1.667,0.931,3.045,2.405,3.745,4.192c0.521,1.325,0.7,2.747,0.768,4.162
		c0.059,1.34,0.03,2.68,0.03,4.028c0,2.777,0,5.562,0,8.347c0,1.117-0.045,2.264,0.268,3.35c0.275,1.072,0.878,2.026,1.533,2.903
		c0.298,0.433,0.693,0.82,0.834,1.34c0.119,0.366,0.044,0.805-0.261,1.059c-1.444,1.236-2.888,2.48-4.311,3.736
		c-0.328,0.277-0.625,0.619-1.05,0.738c-0.38,0.097-0.827,0.053-1.125-0.216c-0.751-0.648-1.474-1.325-2.092-2.106
		c-0.492-0.648-0.93-1.334-1.392-2.004c-1.378,1.393-2.874,2.733-4.668,3.552c-1.229,0.566-2.569,0.856-3.909,0.968
		c-1.452,0.112-2.926,0.112-4.349-0.215c-1.175-0.261-2.3-0.745-3.276-1.453c-0.834-0.603-1.534-1.37-2.085-2.232
		c-0.856-1.379-1.31-2.971-1.444-4.579c-0.164-1.973,0.045-4.007,0.827-5.838c0.729-1.779,2.003-3.313,3.566-4.431
		c1.05-0.759,2.219-1.325,3.448-1.734c0.982-0.35,2.01-0.559,3.038-0.774c2.516-0.469,5.07-0.67,7.617-0.953
		c-0.022-1.221,0.074-2.449-0.127-3.656c-0.126-0.699-0.357-1.415-0.833-1.958c-0.715-0.863-1.839-1.272-2.926-1.37
		c-1.333-0.089-2.733,0.208-3.805,1.027c-0.729,0.537-1.266,1.326-1.534,2.19c-0.112,0.334-0.134,0.707-0.313,1.02
		c-0.164,0.291-0.41,0.566-0.745,0.655c-0.185,0.052-0.38,0.007-0.573-0.015c-1.705-0.179-3.417-0.365-5.13-0.544
		c-0.283-0.037-0.574-0.029-0.834-0.157c-0.283-0.126-0.544-0.334-0.647-0.632c-0.127-0.313-0.03-0.647,0.037-0.968
		c0.335-1.571,0.983-3.097,1.966-4.378C5.942,17.598,8.004,16.294,10.216,15.557z M14.996,33.918
		c-1.065,0.328-2.107,0.841-2.889,1.652c-0.26,0.246-0.454,0.544-0.655,0.834c-0.677,1.095-0.878,2.42-0.812,3.687
		c0.06,1.027,0.35,2.084,1.027,2.889c0.566,0.692,1.422,1.116,2.308,1.206c1.117,0.126,2.263-0.208,3.149-0.894
		c0.856-0.61,1.49-1.49,1.943-2.428c0.447-0.901,0.693-1.898,0.812-2.896c0.156-1.549,0.089-3.105,0.104-4.653
		C18.31,33.315,16.611,33.434,14.996,33.918"/>
	<path fill="#231E20" d="M93.897,15.207c1.563-0.409,3.187-0.595,4.81-0.618c1.4-0.037,2.799,0.104,4.169,0.396
		c1.177,0.253,2.331,0.625,3.403,1.176c0.916,0.454,1.772,1.042,2.479,1.788c0.804,0.781,1.407,1.764,1.81,2.807
		c0.477,1.28,0.648,2.658,0.707,4.021c0.06,1.422,0.03,2.844,0.038,4.259c0,3.112-0.007,6.217,0,9.33
		c0,1.058,0.171,2.115,0.596,3.083c0.439,0.981,1.109,1.831,1.75,2.687c0.246,0.343,0.432,0.789,0.328,1.221
		c-0.052,0.225-0.201,0.402-0.373,0.552c-1.355,1.132-2.695,2.293-4.027,3.455c-0.298,0.253-0.574,0.55-0.909,0.76
		c-0.44,0.305-1.102,0.282-1.497-0.082c-0.841-0.716-1.646-1.482-2.294-2.375c-0.401-0.56-0.781-1.133-1.161-1.706
		c-1.459,1.481-3.068,2.904-5.019,3.701c-1.311,0.551-2.733,0.789-4.147,0.855c-1.438,0.083-2.904,0.016-4.296-0.387
		c-1.14-0.319-2.227-0.864-3.135-1.624c-0.811-0.662-1.475-1.487-1.973-2.411c-0.633-1.192-0.998-2.516-1.14-3.864
		c-0.238-2.398,0.089-4.907,1.273-7.036c1.087-2.01,2.881-3.589,4.936-4.557c1.154-0.544,2.383-0.931,3.626-1.199
		c2.837-0.641,5.741-0.849,8.622-1.169c-0.029-1.392,0.127-2.815-0.23-4.177c-0.171-0.641-0.491-1.243-0.976-1.705
		c-0.744-0.714-1.78-1.05-2.8-1.109c-1.288-0.059-2.635,0.246-3.678,1.035c-0.827,0.618-1.4,1.549-1.631,2.546
		c-0.067,0.313-0.149,0.626-0.342,0.879c-0.194,0.275-0.507,0.476-0.85,0.461c-1.98-0.209-3.954-0.424-5.934-0.633
		c-0.596-0.067-1.162-0.61-1.05-1.244c0.372-2.204,1.377-4.325,2.978-5.904C89.571,16.786,91.701,15.766,93.897,15.207z
		 M97.434,33.933c-1.258,0.395-2.486,1.057-3.261,2.151c-0.648,0.827-0.938,1.876-1.027,2.912c-0.074,1.072,0.022,2.197,0.491,3.179
		c0.379,0.798,1.05,1.475,1.884,1.779c1.117,0.426,2.405,0.313,3.455-0.253c1.08-0.564,1.891-1.541,2.457-2.605
		c0.521-0.969,0.812-2.041,0.931-3.135c0.171-1.541,0.089-3.097,0.111-4.646C100.777,33.315,99.065,33.434,97.434,33.933"/>
	<path fill="#231E20" d="M48.666,15.789c1.027-0.521,2.167-0.783,3.306-0.864c1.221-0.067,2.472,0.023,3.64,0.402
		c1.4,0.446,2.621,1.37,3.522,2.524c0.729,0.908,1.288,1.95,1.757,3.023c0.388-0.998,0.908-1.951,1.594-2.777
		c0.871-1.05,1.988-1.885,3.231-2.42c2.36-1.005,5.13-1.035,7.505-0.067c1.706,0.685,3.18,1.929,4.088,3.522
		c0.611,1.095,0.901,2.338,1.05,3.574c0.164,1.451,0.126,2.918,0.112,4.377c-0.038,3.165-0.015,6.33-0.023,9.494
		c0,4.124,0.008,8.249,0,12.374c0.008,0.618-0.558,1.132-1.161,1.14c-2.01,0-4.021,0-6.039,0c-0.283,0.007-0.574,0-0.827-0.148
		c-0.387-0.194-0.618-0.619-0.61-1.042c-0.007-3.321,0-6.643,0-9.963c0.007-3.008-0.022-6.023,0.023-9.04
		c0.007-1.049,0.007-2.1-0.067-3.149c-0.052-0.774-0.216-1.563-0.603-2.248c-0.291-0.5-0.723-0.917-1.251-1.154
		c-0.663-0.306-1.407-0.365-2.13-0.365c-1.735,0.089-3.283,1.415-3.752,3.068c-0.365,1.31-0.402,2.688-0.432,4.043
		c-0.007,6.269,0,12.538-0.007,18.809c0.015,0.401-0.201,0.81-0.559,1.011c-0.246,0.157-0.543,0.195-0.833,0.18
		c-1.899,0-3.798,0-5.696,0c-0.261,0-0.536,0.022-0.782-0.068c-0.388-0.133-0.677-0.481-0.745-0.884
		c-0.03-0.217-0.015-0.426-0.015-0.642c-0.008-3.053-0.008-6.104-0.008-9.158c-0.008-3.201-0.022-6.403,0.015-9.612
		c0.015-1.02-0.015-2.041-0.164-3.053c-0.127-0.789-0.328-1.579-0.752-2.264c-0.432-0.714-1.162-1.229-1.981-1.392
		c-0.908-0.187-1.891-0.142-2.748,0.23c-0.722,0.313-1.295,0.923-1.66,1.608c-0.528,1.005-0.715,2.145-0.827,3.262
		c-0.112,1.206-0.089,2.42-0.089,3.626c-0.008,5.733,0,11.473-0.008,17.207c0.008,0.626-0.573,1.14-1.176,1.14
		c-2.092,0-4.185,0-6.276,0c-0.484,0.016-0.953-0.306-1.124-0.752c-0.09-0.232-0.067-0.484-0.067-0.729c0-10.61,0-21.221,0-31.83
		c-0.015-0.641,0.559-1.199,1.191-1.199c1.936-0.015,3.879-0.007,5.822-0.007c0.484-0.015,0.953,0.298,1.139,0.752
		c0.112,0.246,0.083,0.536,0.083,0.804c0,1.25,0,2.501,0,3.752c0.104,0.007,0.141-0.075,0.17-0.156c0.41-1.08,0.976-2.115,1.72-3
		C46.9,16.92,47.727,16.25,48.666,15.789"/>
	<path fill="#231E20" d="M158.689,14.947c2.622-0.194,5.332,0.26,7.647,1.541c1.943,1.058,3.559,2.666,4.743,4.52
		c1.303,2.018,2.122,4.303,2.598,6.649c0.498,2.472,0.641,5.019,0.447,7.528c-0.217,2.621-0.85,5.219-2.011,7.58
		c-0.908,1.868-2.174,3.581-3.76,4.929c-1.847,1.586-4.155,2.628-6.574,2.948c-2.651,0.357-5.436,0.015-7.848-1.184
		c-1.921-0.954-3.552-2.42-4.781-4.162c-1.37-1.937-2.263-4.177-2.807-6.471c-0.655-2.822-0.812-5.755-0.558-8.637
		c0.252-2.777,0.931-5.54,2.226-8.019c1.013-1.951,2.435-3.708,4.236-4.974C154.133,15.855,156.396,15.111,158.689,14.947z
		 M159.382,21.514c-1.124,0.096-2.175,0.751-2.792,1.697c-0.685,0.983-1.035,2.159-1.258,3.328
		c-0.298,1.519-0.373,3.075-0.395,4.632c-0.008,2.77-0.008,5.569,0.603,8.285c0.283,1.118,0.648,2.243,1.355,3.166
		c0.514,0.699,1.273,1.235,2.13,1.407c1.154,0.231,2.427-0.016,3.343-0.768c0.782-0.618,1.273-1.511,1.616-2.427
		c0.394-1.043,0.595-2.137,0.729-3.231c0.216-1.794,0.224-3.597,0.208-5.398c-0.044-2.531-0.186-5.092-0.908-7.527
		c-0.283-0.924-0.752-1.839-1.541-2.42C161.601,21.588,160.447,21.424,159.382,21.514"/>
	<path fill="#231E20" d="M191.459,15.892c1.169-0.655,2.509-0.931,3.833-0.975c1.415-0.067,2.86,0.126,4.178,0.677
		c1.996,0.812,3.589,2.517,4.333,4.535c0.328,0.886,0.521,1.817,0.662,2.74c0.239,1.742,0.291,3.492,0.291,5.249
		c0,6.85,0,13.7,0,20.55c0,0.215,0.022,0.445-0.059,0.654c-0.128,0.352-0.439,0.625-0.79,0.716
		c-0.223,0.067-0.453,0.052-0.678,0.052c-1.995,0-3.991,0-5.985,0c-0.41,0-0.806-0.253-0.991-0.618
		c-0.148-0.26-0.119-0.572-0.119-0.863c0-6.366,0-12.74,0.009-19.113c-0.009-1.422-0.068-2.874-0.546-4.237
		c-0.305-0.871-0.892-1.697-1.756-2.084c-0.604-0.276-1.288-0.357-1.95-0.313c-1.132,0.097-2.168,0.774-2.822,1.683
		c-0.41,0.551-0.67,1.192-0.879,1.839c-0.447,1.333-0.588,2.747-0.625,4.155c-0.03,1.281-0.017,2.569-0.017,3.849
		c0,4.855,0,9.709,0,14.556c0.009,0.626-0.572,1.147-1.175,1.147c-2.078,0-4.147,0-6.225,0c-0.47,0.016-0.938-0.26-1.125-0.7
		c-0.126-0.26-0.096-0.558-0.096-0.841c-0.008-10.61-0.016-21.22-0.022-31.823c0-0.477,0.35-0.923,0.796-1.072
		c0.269-0.104,0.566-0.082,0.849-0.082c1.653,0,3.3,0,4.951,0c0.276,0,0.574-0.03,0.842,0.089c0.389,0.142,0.729,0.514,0.729,0.946
		c0,1.609-0.006,3.217,0,4.833c0.121,0.022,0.157-0.104,0.195-0.187c0.454-1.109,1.006-2.204,1.727-3.172
		C189.656,17.196,190.482,16.421,191.459,15.892"/>
	<path fill="#231E20" d="M119.295,15.84c0.238-0.253,0.595-0.35,0.938-0.35c6.731,0,13.469,0,20.201,0
		c0.35,0,0.729-0.015,1.042,0.186c0.343,0.201,0.544,0.588,0.544,0.983c0.008,1.25,0,2.494,0.008,3.744
		c0.037,0.849-0.521,1.564-0.954,2.249c-3.775,5.384-7.557,10.775-11.333,16.158c3.336-0.052,6.731,0.335,9.843,1.601
		c0.678,0.276,1.34,0.596,1.981,0.961c0.707,0.372,1.102,1.162,1.072,1.943c0,1.415,0,2.836,0,4.258c0,0.247,0.015,0.5-0.029,0.745
		c-0.12,0.448-0.492,0.85-0.968,0.909c-0.209,0.028-0.41-0.046-0.588-0.143c-6.567-3.372-14.743-3.469-21.347-0.134
		c-0.306,0.142-0.611,0.388-0.968,0.313c-0.559-0.119-0.953-0.676-0.946-1.235c0-1.607,0.008-3.216,0.008-4.832
		c-0.008-1.006,0.179-2.047,0.737-2.904c0.334-0.506,0.692-0.997,1.035-1.497c3.805-5.449,7.602-10.9,11.399-16.343
		c-3.597-0.007-7.201,0-10.796,0c-0.342-0.007-0.693-0.126-0.916-0.387c-0.216-0.231-0.298-0.551-0.291-0.857
		c0-1.497,0-2.992,0-4.489C118.959,16.398,119.064,16.063,119.295,15.84"/>
</g>
</svg>
