<?xml version="1.0" encoding="utf-8"?>
<!-- Generator: Adobe Illustrator 16.0.0, SVG Export Plug-In . SVG Version: 6.00 Build 0)  -->
<!DOCTYPE svg PUBLIC "-//W3C//DTD SVG 1.1//EN" "http://www.w3.org/Graphics/SVG/1.1/DTD/svg11.dtd">
<svg version="1.1" id="Layer_1" xmlns="http://www.w3.org/2000/svg" xmlns:xlink="http://www.w3.org/1999/xlink" x="0px" y="0px"
	 width="144px" height="144px" viewBox="0 0 144 144" enable-background="new 0 0 144 144" xml:space="preserve">
<circle fill="#FFFFFF" cx="72.037" cy="72" r="71.915"/>
<path fill="#27AAE1" d="M101.815,118.788c0,5.958-4.829,10.787-10.787,10.787H53.046c-5.958,0-10.788-4.829-10.788-10.787V20.417
	c0-5.958,4.83-10.788,10.788-10.788h37.982c5.958,0,10.787,4.83,10.787,10.788V118.788z"/>
<path fill="#74CFEE" d="M98.107,84.886c0,5.957-4.83,10.787-10.787,10.787H56.754c-5.958,0-10.788-4.83-10.788-10.787V54.32
	c0-5.958,4.83-10.788,10.788-10.788H87.32c5.957,0,10.787,4.83,10.787,10.788V84.886z"/>
<g>
	<circle fill="#74CFEE" cx="51.362" cy="122.341" r="2.922"/>
	<circle fill="#74CFEE" cx="61.699" cy="122.341" r="2.922"/>
	<circle fill="#74CFEE" cx="72.037" cy="122.341" r="2.922"/>
	<circle fill="#74CFEE" cx="92.712" cy="122.341" r="2.921"/>
	<circle fill="#74CFEE" cx="82.375" cy="122.341" r="2.922"/>
	<circle fill="#74CFEE" cx="55.856" cy="114.475" r="2.922"/>
	<circle fill="#74CFEE" cx="66.194" cy="114.475" r="2.922"/>
	<circle fill="#74CFEE" cx="86.87" cy="114.475" r="2.921"/>
	<circle fill="#74CFEE" cx="76.532" cy="114.475" r="2.921"/>
	<circle fill="#74CFEE" cx="61.025" cy="107.508" r="2.922"/>
	<circle fill="#74CFEE" cx="81.701" cy="107.508" r="2.921"/>
	<circle fill="#74CFEE" cx="71.363" cy="107.508" r="2.921"/>
</g>
<g>
	<circle fill="#74CFEE" cx="92.712" cy="16.266" r="2.921"/>
	<circle fill="#74CFEE" cx="82.375" cy="16.266" r="2.922"/>
	<circle fill="#74CFEE" cx="72.037" cy="16.266" r="2.922"/>
	<circle fill="#74CFEE" cx="51.362" cy="16.266" r="2.922"/>
	<circle fill="#74CFEE" cx="61.699" cy="16.266" r="2.922"/>
	<circle fill="#74CFEE" cx="88.218" cy="24.131" r="2.921"/>
	<circle fill="#74CFEE" cx="77.88" cy="24.131" r="2.921"/>
	<circle fill="#74CFEE" cx="57.205" cy="24.131" r="2.921"/>
	<circle fill="#74CFEE" cx="67.542" cy="24.131" r="2.921"/>
	<circle fill="#74CFEE" cx="83.049" cy="31.098" r="2.921"/>
	<circle fill="#74CFEE" cx="62.374" cy="31.098" r="2.921"/>
	<circle fill="#74CFEE" cx="72.711" cy="31.098" r="2.922"/>
</g>
</svg>
