<?xml version="1.0" encoding="utf-8"?>
<!-- Generator: Adobe Illustrator 16.0.0, SVG Export Plug-In . SVG Version: 6.00 Build 0)  -->
<!DOCTYPE svg PUBLIC "-//W3C//DTD SVG 1.1//EN" "http://www.w3.org/Graphics/SVG/1.1/DTD/svg11.dtd">
<svg version="1.1" id="Layer_1" xmlns="http://www.w3.org/2000/svg" xmlns:xlink="http://www.w3.org/1999/xlink" x="0px" y="0px"
	 width="4.41px" height="3.221px" viewBox="0 0 4.41 3.221" enable-background="new 0 0 4.41 3.221" xml:space="preserve">
<g>
	<path fill="#FFFFFF" d="M2.833,1.281C2.673,1.397,2.444,1.54,2.324,1.597c0,0,0,0-0.123,0c-0.12,0-0.12,0-0.12,0
		C1.963,1.542,1.735,1.401,1.575,1.285L0.404,0.44C0.243,0.325,0.112,0.392,0.112,0.59v2.187c0,0.198,0.162,0.359,0.36,0.359h3.467
		c0.197,0,0.359-0.161,0.359-0.359V0.567c0-0.198-0.131-0.264-0.29-0.147L2.833,1.281z"/>
</g>
<path fill="#FFFFFF" d="M2.26,1.367c0.087-0.023,0.282-0.133,0.433-0.244l1.145-0.837c0.148-0.111,0.12-0.202-0.066-0.202H0.609
	c-0.188,0-0.217,0.09-0.065,0.2l1.167,0.842C1.864,1.236,2.173,1.39,2.26,1.367z"/>
</svg>
