<?xml version="1.0" encoding="utf-8"?>
<!-- Generator: Adobe Illustrator 16.0.0, SVG Export Plug-In . SVG Version: 6.00 Build 0)  -->
<!DOCTYPE svg PUBLIC "-//W3C//DTD SVG 1.1//EN" "http://www.w3.org/Graphics/SVG/1.1/DTD/svg11.dtd">
<svg version="1.1" id="Layer_1" xmlns="http://www.w3.org/2000/svg" xmlns:xlink="http://www.w3.org/1999/xlink" x="0px" y="0px"
	 width="83px" height="158.4px" viewBox="0 0 83 158.4" enable-background="new 0 0 83 158.4" xml:space="preserve">
<path fill="#FFFFFF" d="M54.908,5.329c-0.818-2.65-2.25-4.412-3.883-4.412c-1.296,0-2.468,1.113-3.306,2.898
	c-1.965-0.236-3.974-0.354-6.02-0.354c-1.779,0-3.526,0.097-5.245,0.274c-0.835-1.74-1.992-2.819-3.271-2.819
	c-1.576,0-2.968,1.641-3.798,4.139C12.81,9.712,0.789,25.149,0.789,58.668c0,19.13,5.63,32.503,15.034,50.274
	c4.277,8.083-1.881,14.637-3.204,20.211c-2.06,8.679,9.365,18.237,9.365,18.237s-7.58-7.521,7.394-13.803
	c10.067-4.222,31.929-9.135,37.215-17.004c11.091-16.513,16.02-38.922,16.02-57.916C82.611,25.757,71.02,10.288,54.908,5.329z"/>
<ellipse cx="34.552" cy="20.221" rx="2.218" ry="8.873"/>
<ellipse cx="49.34" cy="20.221" rx="2.219" ry="8.873"/>
<g>
	<path d="M49.053,40.202c-0.063,0-0.124-0.011-0.187-0.036c-0.252-0.104-0.373-0.391-0.271-0.644c0.117-0.287,2.914-7.035,6.9-7.713
		c1.538-0.265,3.023,0.399,4.408,1.965c0.181,0.204,0.161,0.516-0.042,0.696c-0.204,0.179-0.516,0.162-0.695-0.042
		c-1.145-1.293-2.324-1.845-3.506-1.647c-3.446,0.584-6.126,7.048-6.151,7.113C49.431,40.086,49.246,40.202,49.053,40.202z"/>
</g>
<ellipse fill="#12141A" cx="31.595" cy="154.045" rx="25.877" ry="3.45"/>
</svg>
