<?xml version="1.0" encoding="utf-8"?>
<!-- Generator: Adobe Illustrator 16.0.0, SVG Export Plug-In . SVG Version: 6.00 Build 0)  -->
<!DOCTYPE svg PUBLIC "-//W3C//DTD SVG 1.1//EN" "http://www.w3.org/Graphics/SVG/1.1/DTD/svg11.dtd">
<svg version="1.1" id="Layer_1" xmlns="http://www.w3.org/2000/svg" xmlns:xlink="http://www.w3.org/1999/xlink" x="0px" y="0px"
	 width="144px" height="144px" viewBox="0 0 144 144" enable-background="new 0 0 144 144" xml:space="preserve">
<circle fill="#FFFFFF" cx="72" cy="72" r="71.603"/>
<path fill="#27AAE1" d="M112.608,100.03l-0.984-3.317c-8.619-29.013-1.962-44.4-1.673-45.041l0.511-1.139l1.238-0.163
	c0.172-0.029,5.025-0.9,8.374-8.509c0.734-1.67,2.316-2.666,4.23-2.666c3.796,0,9.314,3.994,12.064,11.394
	c3.044,8.19,4.344,25.211-21.139,47.181L112.608,100.03z M113.691,54.448c-1.131,3.445-4.368,16.277,1.264,37.577
	c21.486-19.764,19.263-34.375,17.22-39.876c-2.098-5.645-6.176-8.478-7.87-8.478c-0.063,0-0.109,0.005-0.14,0.01
	C120.857,51.158,116.053,53.648,113.691,54.448z"/>
<path fill="#27AAE1" d="M29.245,97.771C3.761,75.801,5.062,58.78,8.105,50.589c2.75-7.4,8.269-11.394,12.064-11.394
	c1.914,0,3.496,0.996,4.23,2.666c3.349,7.609,8.202,8.48,8.375,8.509l1.238,0.163l0.511,1.139
	c0.288,0.641,6.946,16.027-1.673,45.041l-0.985,3.317L29.245,97.771z M20.31,43.68c-0.03-0.005-0.076-0.01-0.14-0.01
	c-1.694,0-5.772,2.833-7.87,8.478c-2.043,5.5-4.266,20.112,17.22,39.876c5.631-21.299,2.394-34.131,1.263-37.577
	C28.422,53.648,23.617,51.158,20.31,43.68z"/>
<path fill="#27AAE1" d="M72.237,126.896c-28.67,0-51.912-30.015-51.912-54.896c0-16.042,9.663-19.386,24.212-27.367
	c8.016-4.397,17.515-17.683,27.7-17.683s19.685,13.286,27.699,17.683C114.486,52.614,124.15,55.958,124.15,72
	C124.15,96.881,100.908,126.896,72.237,126.896z"/>
<path fill="#74CFEE" d="M72.237,122.876c-26.365,0-47.738-27.6-47.738-50.48c0-14.752,8.886-17.827,22.266-25.167
	c7.371-4.044,16.106-16.261,25.472-16.261c9.365,0,18.101,12.217,25.473,16.261c13.379,7.339,22.266,10.414,22.266,25.167
	C119.976,95.276,98.603,122.876,72.237,122.876z"/>
</svg>
