<?xml version="1.0" encoding="utf-8"?>
<!-- Generator: Adobe Illustrator 16.0.0, SVG Export Plug-In . SVG Version: 6.00 Build 0)  -->
<!DOCTYPE svg PUBLIC "-//W3C//DTD SVG 1.1//EN" "http://www.w3.org/Graphics/SVG/1.1/DTD/svg11.dtd">
<svg version="1.1" id="Layer_1" xmlns="http://www.w3.org/2000/svg" xmlns:xlink="http://www.w3.org/1999/xlink" x="0px" y="0px"
	 width="2268px" height="576px" viewBox="0 0 2268 576" style="enable-background:new 0 0 2268 576;" xml:space="preserve">
<g transform="matrix(2.07675 0 0 -2.07675 -11.153 92.77)">
	<g>
		<g>
			<path style="fill:#253B80;" d="M208.027,22.379c-12.732,14.512-35.747,20.733-65.189,20.733H57.387
				c-6.021,0.003-11.15-4.374-12.093-10.321L9.729-192.88c-0.63-4,2.102-7.754,6.102-8.383c0.379-0.06,0.762-0.09,1.146-0.09h52.754
				l13.249,84.036l-0.411-2.631c0.925,5.935,6.033,10.314,12.04,10.321h25.069c49.248,0,87.809,20.004,99.073,77.868
				c0.334,1.711,0.624,3.377,0.875,5.004c3.346,21.388-0.023,35.945-11.591,49.126"/>
			<path style="fill:#179BD7;" d="M853.85-85.007c-3.224-21.174-19.394-21.174-35.033-21.174h-8.898l6.244,39.535
				c0.38,2.388,2.433,4.145,4.852,4.145h4.084c10.648,0,20.703,0,25.89-6.062C854.086-72.192,855.021-77.577,853.85-85.007
				 M847.043-29.759h-58.99c-4.036-0.002-7.472-2.935-8.108-6.921l-23.836-151.256c-0.42-2.685,1.416-5.203,4.101-5.623
				c0.249-0.039,0.5-0.058,0.751-0.059h30.271c2.822,0,5.225,2.054,5.666,4.837l6.769,42.897c0.624,3.978,4.062,6.921,8.093,6.921
				h18.664c38.865,0,61.287,18.794,67.144,56.07c2.64,16.292,0.107,29.1-7.522,38.067c-8.389,9.857-23.258,15.075-42.996,15.075"/>
			<path style="fill:#253B80;" d="M433.098-85.007c-3.225-21.174-19.395-21.174-35.04-21.174h-8.898l6.244,39.535
				c0.38,2.388,2.434,4.145,4.852,4.145h4.084c10.648,0,20.703,0,25.89-6.062C433.334-72.192,434.269-77.577,433.098-85.007
				 M426.291-29.759H367.3c-4.031,0-7.469-2.936-8.1-6.921l-23.844-151.256c-0.424-2.68,1.405-5.197,4.084-5.621
				c0.254-0.04,0.511-0.061,0.768-0.061h28.172c4.031,0,7.461,2.936,8.093,6.922l6.442,40.805c0.624,3.985,4.061,6.921,8.093,6.921
				h18.665c38.866,0,61.287,18.801,67.144,56.078c2.639,16.292,0.106,29.1-7.522,38.067c-8.389,9.857-23.259,15.075-42.996,15.075
				 M563.248-139.313c-2.738-16.139-15.539-26.977-31.884-26.977c-8.191,0-14.755,2.639-18.969,7.628
				c-4.183,4.944-5.75,11.994-4.427,19.836c2.54,16.003,15.562,27.183,31.655,27.183c8.024,0,14.527-2.662,18.832-7.697
				C562.784-124.413,564.488-131.502,563.248-139.313 M602.616-84.323h-28.248c-2.427,0.003-4.493-1.763-4.868-4.16l-1.232-7.895
				l-1.978,2.86c-6.115,8.876-19.752,11.85-33.367,11.85c-31.206,0-57.864-23.654-63.052-56.815
				c-2.7-16.557,1.133-32.371,10.519-43.406c8.617-10.139,20.916-14.36,35.572-14.36c25.16,0,39.109,16.155,39.109,16.155
				l-1.263-7.849c-0.424-2.68,1.404-5.197,4.085-5.621c0.256-0.041,0.515-0.061,0.775-0.06h25.433c4.031,0,7.469,2.928,8.101,6.921
				l15.272,96.693c0.42,2.685-1.416,5.202-4.101,5.623c-0.253,0.04-0.51,0.059-0.766,0.059"/>
			<path style="fill:#179BD7;" d="M984.001-139.313c-2.738-16.139-15.539-26.977-31.884-26.977c-8.191,0-14.755,2.639-18.969,7.628
				c-4.183,4.944-5.75,11.994-4.426,19.836c2.54,16.003,15.554,27.183,31.655,27.183c8.024,0,14.527-2.662,18.832-7.697
				C983.536-124.413,985.24-131.502,984.001-139.313 M1023.368-84.323H995.12c-2.427,0.003-4.493-1.763-4.868-4.16l-1.232-7.895
				l-1.978,2.86c-6.115,8.876-19.752,11.85-33.367,11.85c-31.198,0-57.857-23.654-63.051-56.815
				c-2.7-16.557,1.14-32.371,10.526-43.406c8.617-10.139,20.916-14.36,35.572-14.36c25.167,0,39.117,16.155,39.117,16.155
				l-1.263-7.849c-0.433-2.67,1.382-5.186,4.052-5.618c0.262-0.043,0.528-0.063,0.793-0.063h25.426c4.031,0,7.469,2.928,8.108,6.921
				l15.273,96.693c0.42,2.685-1.416,5.202-4.101,5.623c-0.253,0.04-0.51,0.059-0.766,0.059"/>
			<path style="fill:#253B80;" d="M753.066-84.33h-28.4c-2.715,0-5.248-1.346-6.77-3.598l-39.17-57.683l-16.603,55.431
				c-1.041,3.471-4.233,5.851-7.857,5.856h-27.905c-2.718-0.001-4.92-2.206-4.919-4.923c0-0.54,0.089-1.076,0.264-1.587
				l31.259-91.772l-29.404-41.489c-1.566-2.22-1.036-5.291,1.184-6.858c0.829-0.585,1.818-0.899,2.832-0.9h28.37
				c2.677,0,5.194,1.316,6.731,3.522l94.419,136.28c1.55,2.227,1.001,5.289-1.226,6.84C755.048-84.638,754.069-84.331,753.066-84.33
				"/>
			<path style="fill:#179BD7;" d="M1056.658-33.92l-24.217-154.025c-0.42-2.685,1.416-5.202,4.102-5.622
				c0.251-0.04,0.505-0.059,0.758-0.059h24.346c4.031,0,7.469,2.936,8.1,6.921l23.875,151.264c0.424,2.68-1.405,5.197-4.085,5.621
				c-0.256,0.041-0.516,0.061-0.775,0.06h-27.244c-2.423,0.006-4.488-1.758-4.86-4.153"/>
			<path style="fill:#253B80;" d="M208.027,22.379c-12.732,14.512-35.747,20.733-65.189,20.733H57.387
				c-6.021,0.003-11.15-4.374-12.093-10.321L9.729-192.88c-0.63-4,2.102-7.754,6.102-8.383c0.379-0.06,0.762-0.09,1.146-0.09h52.754
				l13.249,84.036l-0.411-2.631c0.925,5.935,6.033,10.314,12.04,10.321h25.069c49.248,0,87.809,20.004,99.073,77.868
				c0.334,1.711,0.624,3.377,0.875,5.004c3.346,21.388-0.023,35.945-11.591,49.126"/>
			<path style="fill:#253B80;" d="M97.211-27.036c0.826,5.196,5.303,9.022,10.564,9.028h66.992c7.933,0,15.334-0.517,22.095-1.597
				c3.697-0.595,7.354-1.413,10.952-2.449c4.086-1.149,8.04-2.724,11.796-4.7c3.362,21.395-0.015,35.945-11.584,49.133
				c-12.739,14.504-35.747,20.726-65.189,20.726H57.38c-6.015-0.004-11.136-4.38-12.078-10.321L9.722-192.865
				c-0.634-3.999,2.094-7.756,6.093-8.39c0.379-0.06,0.763-0.09,1.148-0.09h52.761l13.249,84.044L97.211-27.036z"/>
			<path style="fill:#179BD7;" d="M219.619-26.747c-0.261-1.673-0.552-3.342-0.875-5.004
				c-11.264-57.857-49.825-77.868-99.073-77.868H94.595c-6.007-0.005-11.114-4.385-12.032-10.321l-12.839-81.397l-3.651-23.091
				c-0.555-3.501,1.835-6.79,5.336-7.344c0.333-0.053,0.67-0.079,1.007-0.079h44.471c5.263,0,9.736,3.833,10.564,9.028l0.434,2.266
				l8.382,53.119l0.532,2.936c0.823,5.2,5.307,9.029,10.572,9.028h6.655c43.079,0,76.811,17.494,86.668,68.118
				c4.107,21.144,1.978,38.812-8.898,51.217C228.342-32.294,224.216-29.111,219.619-26.747"/>
			<path style="fill:#222D65;" d="M207.822-22.054c-1.718,0.51-3.491,0.966-5.316,1.369c-1.825,0.403-3.712,0.761-5.644,1.065
				c-6.769,1.103-14.162,1.62-22.102,1.62h-66.984c-5.268,0.007-9.754-3.83-10.564-9.036l-14.238-90.281l-0.411-2.623
				c0.919,5.936,6.026,10.316,12.032,10.321h25.076c49.248,0,87.809,20.003,99.073,77.868c0.335,1.711,0.616,3.369,0.875,5.004
				c-2.974,1.556-6.073,2.864-9.264,3.91c-0.829,0.274-1.673,0.532-2.533,0.791"/>
		</g>
	</g>
</g>
</svg>
