<?xml version="1.0" encoding="utf-8"?>
<!-- Generator: Adobe Illustrator 16.0.0, SVG Export Plug-In . SVG Version: 6.00 Build 0)  -->
<!DOCTYPE svg PUBLIC "-//W3C//DTD SVG 1.1//EN" "http://www.w3.org/Graphics/SVG/1.1/DTD/svg11.dtd">
<svg version="1.1" id="Layer_1" xmlns="http://www.w3.org/2000/svg" xmlns:xlink="http://www.w3.org/1999/xlink" x="0px" y="0px"
	 width="23.18px" height="50.62px" viewBox="0 0 23.18 50.62" style="enable-background:new 0 0 23.18 50.62;" xml:space="preserve"
	>
<path d="M22.729,47.036c0,1.633-1.296,2.969-2.88,2.969H3.48c-1.584,0-2.88-1.336-2.88-2.969V3.208c0-1.633,1.296-2.969,2.88-2.969
	h16.37c1.584,0,2.88,1.336,2.88,2.969V47.036z"/>
<g id="screen">
	<rect x="2.96" y="3.873" style="fill:#FFFFFF;" width="17.414" height="22.69"/>
</g>
<circle style="fill:#FFFFFF;" cx="5.599" cy="30.771" r="2.639"/>
<circle style="fill:#FFFFFF;" cx="11.667" cy="30.771" r="2.639"/>
<circle style="fill:#FFFFFF;" cx="17.735" cy="30.771" r="2.639"/>
<circle style="fill:#FFFFFF;" cx="5.599" cy="37.249" r="2.639"/>
<circle style="fill:#FFFFFF;" cx="11.667" cy="37.249" r="2.639"/>
<circle style="fill:#FFFFFF;" cx="17.735" cy="37.249" r="2.639"/>
<circle style="fill:#FFFFFF;" cx="5.599" cy="43.727" r="2.639"/>
<circle style="fill:#FFFFFF;" cx="11.667" cy="43.727" r="2.639"/>
<circle style="fill:#FFFFFF;" cx="17.735" cy="43.727" r="2.639"/>
</svg>
