<?xml version="1.0" encoding="utf-8"?>
<!-- Generator: Adobe Illustrator 16.0.0, SVG Export Plug-In . SVG Version: 6.00 Build 0)  -->
<!DOCTYPE svg PUBLIC "-//W3C//DTD SVG 1.1//EN" "http://www.w3.org/Graphics/SVG/1.1/DTD/svg11.dtd">
<svg version="1.1" id="Layer_1" xmlns="http://www.w3.org/2000/svg" xmlns:xlink="http://www.w3.org/1999/xlink" x="0px" y="0px"
	 width="23.18px" height="50.621px" viewBox="0 0 23.18 50.621" style="enable-background:new 0 0 23.18 50.621;"
	 xml:space="preserve">
<path style="fill:#FFFFFF;" d="M19.85,0.239H3.48c-1.584,0-2.88,1.336-2.88,2.969v43.829c0,1.633,1.296,2.969,2.88,2.969h16.369
	c1.584,0,2.88-1.336,2.88-2.969h0.001V3.208C22.73,1.575,21.434,0.239,19.85,0.239z M5.599,46.367c-1.457,0-2.639-1.182-2.639-2.64
	s1.182-2.64,2.639-2.64c1.458,0,2.639,1.182,2.639,2.64S7.057,46.367,5.599,46.367z M5.599,39.888c-1.457,0-2.639-1.182-2.639-2.639
	c0-1.458,1.182-2.64,2.639-2.64c1.458,0,2.639,1.182,2.639,2.64C8.238,38.707,7.057,39.888,5.599,39.888z M5.599,33.41
	c-1.457,0-2.639-1.182-2.639-2.639s1.182-2.639,2.639-2.639c1.458,0,2.639,1.182,2.639,2.639S7.057,33.41,5.599,33.41z
	 M11.667,46.367c-1.458,0-2.64-1.182-2.64-2.64s1.182-2.64,2.64-2.64c1.457,0,2.639,1.182,2.639,2.64S13.124,46.367,11.667,46.367z
	 M11.667,39.888c-1.458,0-2.64-1.182-2.64-2.639c0-1.458,1.182-2.64,2.64-2.64c1.457,0,2.639,1.182,2.639,2.64
	C14.306,38.707,13.124,39.888,11.667,39.888z M11.667,33.41c-1.458,0-2.64-1.182-2.64-2.639s1.182-2.639,2.64-2.639
	c1.457,0,2.639,1.182,2.639,2.639S13.124,33.41,11.667,33.41z M17.735,46.367c-1.457,0-2.639-1.182-2.639-2.64
	s1.182-2.64,2.639-2.64c1.458,0,2.64,1.182,2.64,2.64S19.193,46.367,17.735,46.367z M17.735,39.888
	c-1.457,0-2.639-1.182-2.639-2.639c0-1.458,1.182-2.64,2.639-2.64c1.458,0,2.64,1.182,2.64,2.64
	C20.374,38.707,19.193,39.888,17.735,39.888z M17.735,33.41c-1.457,0-2.639-1.182-2.639-2.639s1.182-2.639,2.639-2.639
	c1.458,0,2.64,1.182,2.64,2.639S19.193,33.41,17.735,33.41z M20.374,26.563H2.96V3.873h17.414V26.563z"/>
</svg>
