<?xml version="1.0" encoding="utf-8"?>
<!-- Generator: Adobe Illustrator 16.0.0, SVG Export Plug-In . SVG Version: 6.00 Build 0)  -->
<!DOCTYPE svg PUBLIC "-//W3C//DTD SVG 1.1//EN" "http://www.w3.org/Graphics/SVG/1.1/DTD/svg11.dtd">
<svg version="1.1" id="pin" xmlns="http://www.w3.org/2000/svg" xmlns:xlink="http://www.w3.org/1999/xlink" x="0px" y="0px"
	 width="69.12px" height="86.4px" viewBox="0 0 69.12 86.4" enable-background="new 0 0 69.12 86.4" xml:space="preserve">
<g>
	<path d="M33.954,0.771c-17.188,0-31.332,13.985-31.332,31.173c0,0.102,0,0.203,0.004,0.308c0,18.575,18.104,30.795,22.588,36.023
		c4.484,5.228,6.826,16.704,8.74,16.704s4.26-11.477,8.744-16.704c4.484-5.229,22.588-17.448,22.588-36.023
		c0.009-0.105,0.009-0.207,0.009-0.308C65.295,14.755,51.143,0.771,33.954,0.771z M25.584,21.233h-4.783v24.736h-4.37V21.233h-4.779
		V17.11h13.932V21.233z M37.087,45.969l-4.576-11.873l-1.65,3.177v8.696h-4.37V17.11h4.37v11.71l5.77-11.71h4.704L35.19,29.356
		l6.593,16.612H37.087z M56.256,39.086c0,2.086-0.616,3.758-1.856,5.004c-1.232,1.258-2.896,1.879-4.986,1.879H42.57V17.11h6.843
		c2.091,0,3.754,0.629,4.986,1.879c1.24,1.245,1.856,2.917,1.856,5.008V39.086z"/>
	<path d="M49.206,21.233H46.94v20.612h2.266c0.854,0,1.515-0.229,1.98-0.695c0.467-0.471,0.7-1.131,0.7-1.98V23.917
		c0-0.854-0.233-1.518-0.7-1.985C50.721,21.471,50.061,21.233,49.206,21.233z"/>
	<polygon fill="#FFFFFF" points="25.584,21.233 20.801,21.233 20.801,45.969 16.431,45.969 16.431,21.233 11.652,21.233 
		11.652,17.11 25.584,17.11 	"/>
	<polygon fill="#FFFFFF" points="37.087,45.969 32.511,34.096 30.86,37.273 30.86,45.969 26.491,45.969 26.491,17.11 30.86,17.11 
		30.86,28.82 36.63,17.11 41.334,17.11 35.19,29.356 41.783,45.969 	"/>
	<path fill="#FFFFFF" d="M54.399,18.989c-1.232-1.25-2.896-1.879-4.986-1.879H42.57v28.859h6.843c2.091,0,3.754-0.621,4.986-1.879
		c1.24-1.246,1.856-2.918,1.856-5.004V23.997C56.256,21.906,55.64,20.234,54.399,18.989z M51.887,39.17
		c0,0.849-0.233,1.509-0.7,1.98c-0.466,0.466-1.126,0.695-1.98,0.695H46.94V21.233h2.266c0.854,0,1.515,0.238,1.98,0.7
		c0.467,0.467,0.7,1.131,0.7,1.985V39.17z"/>
</g>
</svg>
