<?xml version="1.0" encoding="utf-8"?>
<!-- Generator: Adobe Illustrator 16.0.0, SVG Export Plug-In . SVG Version: 6.00 Build 0)  -->
<!DOCTYPE svg PUBLIC "-//W3C//DTD SVG 1.1//EN" "http://www.w3.org/Graphics/SVG/1.1/DTD/svg11.dtd">
<svg version="1.1" className="quotes" id="Layer_1" xmlns="http://www.w3.org/2000/svg" xmlns:xlink="http://www.w3.org/1999/xlink" x="0px" y="0px"
	 width="36px" height="36px" viewBox="0 0 36 36" enable-background="new 0 0 36 36" xml:space="preserve">
<path  d="M19.916,22.888c2.514-0.767,3.828-2.459,3.717-4.863c-1.586-0.438-3.115-1.751-3.115-3.714v-0.438
	c0-2.079,1.479-3.659,3.717-3.659c2.406,0,3.936,1.855,3.936,4.802v0.551c0,3.716-0.984,6.282-2.732,7.978
	c-1.423,1.476-3.553,2.35-5.139,2.35c-1.147,0-1.693-0.657-1.693-1.531C18.606,23.597,19.151,23.104,19.916,22.888z M9.254,22.888
	c2.511-0.767,3.826-2.459,3.716-4.863c-1.587-0.438-3.115-1.751-3.115-3.714v-0.438c0-2.079,1.479-3.659,3.716-3.659
	c2.405,0,3.935,1.855,3.935,4.802v0.551c0,3.716-0.983,6.282-2.676,7.978c-1.478,1.476-3.609,2.35-5.138,2.35
	c-1.147,0-1.749-0.657-1.749-1.531C7.942,23.597,8.487,23.104,9.254,22.888z"/>
<g>
	<path  d="M18.055,35.906c-9.844,0-17.853-8.005-17.853-17.851c0-9.845,8.009-17.854,17.853-17.854
		c9.843,0,17.854,8.009,17.854,17.854C35.909,27.901,27.898,35.906,18.055,35.906z M18.055,2.782
		c-8.42,0-15.272,6.853-15.272,15.273c0,8.419,6.853,15.27,15.272,15.27c8.421,0,15.273-6.851,15.273-15.27
		C33.328,9.635,26.477,2.782,18.055,2.782z"/>
</g>
</svg>
