<?xml version="1.0" encoding="utf-8"?>
<!-- Generator: Adobe Illustrator 16.0.0, SVG Export Plug-In . SVG Version: 6.00 Build 0)  -->
<!DOCTYPE svg PUBLIC "-//W3C//DTD SVG 1.1//EN" "http://www.w3.org/Graphics/SVG/1.1/DTD/svg11.dtd">
<svg version="1.1" id="Layer_1" xmlns="http://www.w3.org/2000/svg" xmlns:xlink="http://www.w3.org/1999/xlink" x="0px" y="0px"
	 width="4.19px" height="3.49px" viewBox="0 0 4.19 3.49" enable-background="new 0 0 4.19 3.49" xml:space="preserve">
<path fill="#FFFFFF" d="M2.802,0.091c0.531,0,0.638,0.283,0.638,0.283l0.494-0.283l-0.3,0.495L4.076,0.48L3.652,0.887
	c0,0,0,2.511-2.319,2.511c-0.796,0-1.22-0.283-1.22-0.283s0.938-0.053,1.043-0.37C0.999,2.798,0.453,2.444,0.453,2.161
	c0.191,0.036,0.28-0.035,0.28-0.035s-0.619,0-0.619-0.85c0.083,0.105,0.339,0.089,0.339,0.089s-0.534-0.548-0.18-1.114
	c0.265,0.283,0.92,0.867,1.698,0.867C1.971,0.427,2.29,0.091,2.802,0.091z"/>
</svg>
